<svg xmlns="http://www.w3.org/2000/svg" width="120" height="120" viewBox="0 0 120 120">
  <g transform="translate(60,60) scale(0.22) translate(-218,-235)" fill="rgba(255,255,255,0.05)">
    <path d="M251.32,394.81c0,2.95,1.57,5.67,4.12,7.14,1.28.74,2.7,1.11,4.12,1.11s2.85-.37,4.12-1.1l118.31-68.3c2.55-1.47,4.13-4.2,4.13-7.15v-45.54c0-2.95-1.57-5.67-4.12-7.14-2.55-1.47-5.7-1.47-8.25,0l-118.31,68.31c-2.55,1.47-4.12,4.2-4.12,7.14v45.53ZM267.82,354.04l101.81-58.78v26.49l-101.81,58.77v-26.48ZM255.44,310.87c1.28.74,2.7,1.11,4.12,1.11s2.85-.37,4.12-1.1l118.31-68.31c2.55-1.47,4.12-4.2,4.12-7.14v-45.53c0-2.95-1.57-5.67-4.12-7.14-2.55-1.47-5.7-1.47-8.25,0l-118.31,68.31c-2.55,1.47-4.12,4.2-4.12,7.14v45.53c0,2.95,1.57,5.67,4.12,7.14ZM267.82,262.95l101.81-58.78v26.48l-101.81,58.78v-26.48ZM420.56,119.72c-.8-1.39-1.68-2.72-2.64-3.98-1.57-2.06-3.36-3.95-5.32-5.64-1.66-1.43-3.43-2.73-5.33-3.85-.04-.03-.09-.05-.14-.08,0,0-.01,0-.02-.01-.09-.05-.18-.11-.26-.16l-24.85-14.34c-2.55-1.47-5.7-1.47-8.25,0l-157.66,91.03s-.07.04-.11.06l-39.43,22.77s-.04.03-.06.04c-.29.17-.57.36-.84.56-.02.01-.03.03-.05.04-.24.19-.47.39-.69.61-.06.06-.12.12-.18.18-.17.18-.34.37-.5.57-.05.07-.11.13-.16.2-.19.26-.38.53-.54.81,0,0,0,0,0,0-.17.29-.31.58-.43.88-.03.08-.06.16-.09.24-.09.24-.17.48-.24.72-.02.08-.05.16-.07.24-.08.3-.14.6-.18.9,0,.02,0,.04-.01.06-.04.34-.06.67-.07,1.01,0,.02,0,.05,0,.07v76.79l-22.94-13.24v-81.55l35.07-20.25c.08-.05.17-.09.25-.14l39.09-22.58c.12-.06.24-.12.35-.19l118.31-68.3c2.55-1.47,4.13-4.21,4.13-7.15s-1.57-5.67-4.12-7.14l-39.44-22.77c-2.55-1.48-5.7-1.47-8.25,0l-78.54,45.35c-.12.06-.24.13-.36.19l-39.42,22.77c-.06.04-.12.07-.19.11l-78.7,45.43c-2.55,1.47-4.12,4.2-4.12,7.14v136.63c0,2.95,1.57,5.67,4.12,7.15l118.3,68.3c1.28.74,2.7,1.1,4.12,1.1s2.85-.37,4.12-1.11c2.55-1.47,4.12-4.2,4.12-7.14v-131.86l74.77-43.15c.11-.06.22-.13.33-.2l105.46-60.88c.1.81.15,1.64.15,2.46v194.03c0,7.45-4.01,14.4-10.46,18.13l-168.03,97c-.72.41-1.46.78-2.21,1.1v-31.08c0-2.95-1.57-5.67-4.13-7.15l-153.63-88.7v-172.64l193.07-111.48c2.55-1.47,4.12-4.2,4.12-7.14,0-2.95-1.57-5.67-4.12-7.14l-24.93-14.4-.23-.13c-.33-.18-.66-.34-.99-.52-.39-.2-.77-.42-1.16-.61-.1-.05-.21-.09-.32-.14-10.84-5.09-23.71-4.7-34.19,1.17l-.28.16c-.06.03-.13.07-.19.11L58.48,91.51c-.08.04-.16.09-.24.14l-24.85,14.34c-.09.05-.17.1-.26.15-11.39,6.69-18.46,19.05-18.46,32.26v194.03c0,.82.03,1.64.08,2.45.02.28.06.55.08.82.05.54.09,1.07.16,1.6.04.28.09.55.14.83.08.52.16,1.04.26,1.56.06.3.14.6.21.9.11.49.21.97.34,1.45.08.3.18.6.27.9.14.47.27.94.43,1.4.1.3.22.59.33.89.17.45.33.91.51,1.36.12.29.26.57.38.86.2.45.38.89.6,1.33.14.28.29.55.43.82.23.43.44.87.68,1.3.16.27.33.54.49.81.25.41.49.83.76,1.24.18.27.37.53.55.79.27.39.54.79.82,1.17.19.26.41.51.61.76.3.37.58.75.89,1.11.21.25.44.49.67.73.32.35.62.71.95,1.05.24.24.49.47.73.71.33.32.66.65,1,.97.26.23.54.45.8.68.35.3.69.6,1.05.88.28.22.58.43.87.64.36.27.72.55,1.09.8.31.21.63.4.94.6.36.23.71.47,1.07.69.18.12.37.23.55.33l40.38,23.31,23.86,13.78c.06.03.11.06.17.09l38.13,22.01.95.55c.07.04.14.08.21.12l64.25,37.09c.06.04.12.07.18.1,0,0,.02,0,.03.01,5.63,3.22,12.04,4.92,18.55,4.92s13.03-1.74,18.71-5.02l168.04-97c11.54-6.67,18.71-19.09,18.71-32.42v-194.03c0-6.56-1.74-13.03-5.01-18.68ZM66.25,106.07c.05-.03.1-.06.15-.08.03-.02.06-.03.09-.05l39.44-22.76c.11-.06.22-.13.32-.2l78.55-45.35c.11-.06.22-.13.32-.2l24.53-14.17.22-.12c6.11-3.43,13.64-3.53,19.81-.35.24.12.48.24.71.37.02.01.04.02.06.04.07.04.13.08.21.12l12.39,7.15L62.44,134.76l-22.74-13.21c.11-.08.22-.16.33-.24.09-.06.17-.13.26-.19.15-.1.3-.19.45-.29.24-.15.47-.31.71-.45.08-.05.16-.09.24-.14l24.55-14.17ZM209.65,447.56l-64.02-36.96s-.08-.04-.12-.07c-.05-.03-.1-.06-.16-.09l-1.15-.66-38.27-22.1c-.06-.03-.12-.07-.18-.1l-23.99-13.85-40.38-23.32c-.22-.13-.43-.27-.64-.41-.17-.11-.35-.22-.52-.34-.21-.14-.41-.3-.61-.45-.16-.12-.33-.24-.49-.36-.2-.15-.38-.32-.57-.48-.16-.13-.32-.26-.47-.4-.18-.16-.35-.34-.53-.51-.15-.14-.3-.28-.44-.43-.17-.17-.33-.36-.49-.54-.14-.15-.28-.3-.41-.46-.15-.18-.3-.37-.44-.55-.13-.17-.27-.33-.4-.49-.14-.18-.26-.37-.39-.56-.13-.18-.26-.35-.38-.54-.12-.18-.23-.37-.34-.56-.12-.2-.25-.39-.36-.59-.11-.19-.2-.38-.3-.57-.11-.2-.22-.41-.32-.62-.09-.19-.17-.39-.26-.58-.1-.21-.2-.42-.29-.64-.08-.19-.14-.38-.21-.56-.09-.23-.18-.46-.26-.69-.07-.2-.12-.4-.18-.6-.07-.23-.15-.46-.21-.69-.06-.22-.1-.45-.16-.67-.05-.21-.11-.43-.15-.64-.04-.22-.07-.44-.11-.66-.04-.23-.08-.45-.11-.68-.03-.26-.05-.52-.08-.78-.02-.19-.04-.38-.06-.57-.03-.45-.05-.91-.05-1.37v-194.03c0-.88.06-1.75.17-2.62l22.77,13.23v177.49c0,2.95,1.57,5.67,4.12,7.14l153.63,88.71v26.32c-.2-.08-.39-.17-.59-.26-.12-.06-.24-.11-.36-.17-.38-.19-.75-.38-1.12-.59-.05-.03-.1-.06-.15-.09ZM184.81,128.72c.06-.04.13-.08.19-.11l38.91-22.48c.12-.06.23-.12.35-.19l74.75-43.16,22.95,13.25-105.61,60.97c-.12.06-.24.13-.35.19l-39.18,22.63c-.08.04-.17.09-.25.14l-35.28,20.37-22.93-13.25,66.46-38.36ZM110.06,298.97v-117.62l22.93,13.25v86.36c0,2.95,1.57,5.67,4.12,7.14l39.44,22.77c2.55,1.47,5.7,1.47,8.25,0s4.12-4.2,4.12-7.14v-76.79l22.93,13.24v117.58l-101.8-58.78ZM294.88,182.72c-.11.06-.22.13-.33.2l-74.44,42.96-22.93-13.24,26.97-15.58s.07-.04.1-.06l153.62-88.69,20.66,11.92s.04.02.05.03c.06.04.12.07.18.11.59.35,1.16.74,1.72,1.14.06.04.12.08.18.13l-105.79,61.07Z"/>
  </g>
</svg>